<?xml version="1.0" standalone="no"?>
<!DOCTYPE svg PUBLIC "-//W3C//DTD SVG 20010904//EN"
 "http://www.w3.org/TR/2001/REC-SVG-20010904/DTD/svg10.dtd">
<svg version="1.0" xmlns="http://www.w3.org/2000/svg"
 width="594.000000pt" height="199.000000pt" viewBox="0 0 594.000000 199.000000"
 preserveAspectRatio="xMidYMid meet">
<metadata>
Created by potrace 1.16, written by Peter Selinger 2001-2019
</metadata>
<g transform="translate(0.000000,199.000000) scale(0.100000,-0.100000)"
fill="#000000" stroke="none">
<path d="M1365 1654 c-126 -68 -237 -133 -246 -146 -17 -22 -17 -21 -53 50
-44 88 -69 107 -130 98 -43 -7 -46 -6 -61 23 -21 42 -46 54 -73 35 -26 -18
-27 -35 -7 -74 15 -28 14 -31 -20 -76 -19 -25 -35 -50 -35 -56 0 -6 16 -40 36
-76 26 -46 33 -67 25 -75 -6 -6 -104 -61 -218 -121 l-207 -111 -13 -65 c-22
-108 -25 -107 132 -23 77 41 185 99 240 128 55 29 104 62 110 74 5 12 13 21
17 21 4 0 23 -31 43 -69 48 -91 65 -106 121 -103 42 1 44 0 44 -27 0 -42 25
-46 87 -16 70 35 82 57 46 83 l-27 20 27 32 c35 41 34 62 -8 140 -33 61 -34
66 -18 78 10 7 107 60 215 118 115 61 199 112 202 122 2 9 7 37 11 62 4 25 9
53 11 63 3 10 0 17 -8 16 -7 0 -116 -56 -243 -125z m-369 -22 c14 -10 54 -77
54 -91 0 -6 -16 -11 -37 -11 -53 -1 -120 -34 -164 -81 -35 -38 -38 -39 -48
-21 -8 15 -7 23 4 32 17 14 19 38 5 60 -8 13 -11 12 -24 -5 -8 -11 -17 -17
-21 -13 -10 10 30 63 67 89 55 40 137 60 164 41z m89 -153 c41 -65 42 -69 4
-69 -46 0 -129 -40 -172 -84 -20 -20 -39 -36 -43 -36 -4 0 -4 25 0 55 6 54 6
56 -15 45 -55 -30 -24 39 36 80 49 33 89 48 132 49 28 1 37 -5 58 -40z m41
-87 c6 -4 16 -17 23 -29 11 -22 10 -23 -24 -23 -22 0 -35 -5 -35 -13 0 -19 20
-36 36 -30 8 3 14 3 14 0 0 -3 -22 -13 -50 -22 -28 -9 -71 -36 -99 -61 -53
-47 -54 -47 -85 14 -13 26 -14 36 -5 54 l12 23 10 -23 c12 -27 15 -27 50 1 20
15 26 27 22 40 -9 21 -23 22 -47 0 -10 -9 -20 -14 -23 -11 -9 9 71 59 117 73
50 16 69 17 84 7z m65 -132 c26 -14 24 -33 -6 -67 l-25 -28 -19 25 c-19 24
-20 24 -56 7 -34 -16 -37 -20 -31 -51 6 -30 4 -34 -20 -40 -54 -14 -80 16 -55
63 14 26 83 71 133 86 54 17 55 17 79 5z"/>
<path d="M3400 1764 c-107 -15 -331 -62 -340 -71 -3 -3 9 -3 25 0 207 42 280
51 415 52 158 0 193 -9 226 -60 32 -48 -12 -169 -94 -260 -60 -65 -63 -77 -8
-25 68 65 135 148 165 207 74 147 -60 201 -389 157z"/>
<path d="M3005 1073 c-46 -24 -66 -45 -86 -88 -24 -52 -24 -96 1 -144 83 -164
330 -108 330 74 0 125 -139 214 -245 158z"/>
<path d="M1270 1020 c0 -6 27 -10 60 -10 l60 0 0 -100 c0 -97 1 -101 24 -112
41 -18 56 -5 56 52 0 39 -4 53 -20 62 -15 10 -20 24 -20 55 l0 43 54 0 c30 0
58 5 61 10 4 6 -43 10 -134 10 -87 0 -141 -4 -141 -10z"/>
<path d="M1673 1018 c-16 -21 -9 -208 8 -219 8 -5 51 -9 97 -9 66 0 82 3 82
15 0 12 -13 15 -60 15 l-60 0 0 40 0 40 40 0 c22 0 40 5 40 10 0 6 -27 10 -60
10 l-60 0 0 45 0 45 80 0 c47 0 80 4 80 10 0 15 -175 13 -187 -2z"/>
<path d="M1990 920 c0 -131 -1 -130 120 -130 61 0 81 3 78 13 -3 7 -28 13 -66
15 l-62 3 0 44 c0 34 -5 47 -20 55 -16 8 -20 21 -20 60 0 38 -4 50 -15 50 -12
0 -15 -19 -15 -110z"/>
<path d="M2317 1023 c-4 -3 -7 -53 -7 -109 0 -124 0 -124 120 -124 61 0 81 3
78 13 -3 7 -27 13 -61 15 l-57 3 0 39 c0 40 0 40 40 40 22 0 40 5 40 10 0 6
-27 10 -60 10 l-60 0 0 45 0 45 80 0 c47 0 80 4 80 10 0 11 -182 14 -193 3z"/>
<path d="M2638 924 c-2 -58 -1 -110 2 -115 4 -5 20 -12 38 -15 32 -6 32 -6 32
35 0 31 4 41 16 41 26 0 74 -40 74 -61 0 -10 7 -19 15 -19 9 0 15 9 15 24 0
18 -12 32 -47 54 -27 16 -55 32 -63 34 -9 3 9 20 48 47 41 27 62 49 62 61 0
25 -26 26 -33 1 -4 -15 -105 -91 -122 -91 -3 0 -5 25 -5 55 0 41 -4 55 -14 55
-12 0 -15 -22 -18 -106z"/>
<path d="M3317 1024 c-4 -4 -7 -53 -7 -109 0 -107 7 -125 47 -125 21 0 23 4
23 58 0 46 -4 60 -20 70 -15 9 -20 23 -20 52 l0 40 65 0 64 0 3 -107 c2 -88 6
-108 18 -108 12 0 16 20 18 108 l3 107 64 0 65 0 0 -110 c0 -92 2 -110 15
-110 13 0 15 17 13 118 l-3 117 -171 3 c-93 1 -173 -1 -177 -4z"/>
<path d="M3800 920 c0 -131 -1 -130 120 -130 121 0 120 -1 120 130 0 91 -3
110 -15 110 -12 0 -15 -18 -15 -105 l0 -105 -65 0 -65 0 0 40 c0 31 -5 43 -25
56 -21 14 -25 24 -25 65 0 37 -4 49 -15 49 -12 0 -15 -19 -15 -110z"/>
<path d="M4157 1023 c-4 -3 -7 -53 -7 -110 0 -100 1 -104 24 -115 41 -18 56
-5 56 52 0 39 -4 53 -20 62 -15 10 -20 24 -20 55 l0 43 105 0 105 0 0 -110 c0
-91 3 -110 15 -110 13 0 15 20 15 120 l0 120 -133 0 c-74 0 -137 -3 -140 -7z"/>
<path d="M4750 920 c0 -107 1 -111 24 -122 39 -17 56 -4 56 43 l0 41 43 -25
c24 -15 43 -34 45 -46 5 -29 32 -27 32 3 0 17 -13 31 -51 55 -28 17 -55 31
-60 31 -22 0 -5 17 51 54 39 24 60 45 60 57 0 10 -7 19 -15 19 -8 0 -15 -7
-15 -15 0 -8 -28 -32 -62 -54 l-63 -40 -3 54 c-3 47 -6 55 -22 55 -19 0 -20
-8 -20 -110z"/>
<path d="M5117 1024 c-4 -4 -7 -26 -7 -50 0 -33 -5 -45 -25 -58 -20 -13 -25
-25 -25 -61 0 -47 16 -65 59 -65 19 0 21 6 21 55 l0 55 84 0 85 0 3 -52 c2
-39 7 -53 18 -53 11 0 16 14 18 57 3 49 0 57 -17 63 -16 5 -21 16 -23 58 l-3
52 -90 3 c-50 1 -94 0 -98 -4z"/>
<path d="M5476 1021 c-13 -20 -9 -103 5 -112 8 -5 44 -9 82 -9 l67 0 0 -40 0
-40 -65 0 c-37 0 -65 4 -65 10 0 6 -7 10 -15 10 -20 0 -19 -36 1 -44 9 -3 55
-6 103 -6 110 0 123 8 119 75 l-3 50 -100 5 -100 5 -3 43 -3 42 85 0 c51 0 86
-4 86 -10 0 -5 9 -10 21 -10 14 0 19 5 17 18 -3 15 -18 17 -115 20 -61 1 -114
-1 -117 -7z"/>
<path d="M544 669 c-240 -164 -374 -305 -374 -394 0 -43 63 -98 136 -118 203
-56 581 -44 1040 33 217 36 461 90 408 90 -5 0 -85 -15 -179 -34 -474 -95
-929 -132 -1140 -91 -81 15 -158 52 -175 85 -16 31 -11 91 12 139 28 58 156
186 276 276 83 62 99 75 89 75 -2 0 -43 -27 -93 -61z"/>
<path d="M811 596 c-8 -9 -11 -50 -9 -117 l3 -104 38 -3 37 -3 0 47 c0 33 -6
54 -19 68 -21 23 -33 76 -21 95 4 8 28 11 66 9 l59 -3 3 -107 c2 -86 6 -108
17 -108 11 0 15 22 17 108 l3 107 63 3 62 3 0 -111 c0 -103 1 -110 20 -110 19
0 20 7 20 108 0 71 -4 112 -12 120 -18 18 -332 17 -347 -2z"/>
<path d="M1292 493 l3 -118 115 0 115 0 3 118 c2 100 0 117 -13 117 -13 0 -15
-18 -15 -110 l0 -110 -65 0 -65 0 0 38 c0 26 -7 45 -20 57 -13 12 -20 33 -22
69 -2 39 -7 52 -21 54 -16 3 -17 -6 -15 -115z"/>
<path d="M1640 497 c0 -96 3 -116 16 -121 27 -10 184 -7 184 4 0 6 -27 10 -60
10 l-60 0 0 45 c0 34 -5 47 -19 55 -15 8 -21 23 -23 62 -2 41 -7 54 -20 56
-16 3 -18 -7 -18 -111z"/>
<path d="M1960 600 c0 -6 27 -10 60 -10 l59 0 3 -107 3 -108 38 -3 37 -3 0 53
c0 42 -4 56 -20 66 -15 9 -20 23 -20 57 l0 45 60 0 c33 0 60 4 60 10 0 6 -53
10 -140 10 -87 0 -140 -4 -140 -10z"/>
<path d="M2561 596 c-8 -9 -11 -50 -9 -117 l3 -104 38 -3 37 -3 0 49 c0 36 -5
54 -20 67 -14 13 -20 31 -20 62 l0 43 65 0 65 0 0 -110 c0 -91 3 -110 15 -110
12 0 15 19 15 110 l0 110 65 0 65 0 0 -110 c0 -103 1 -110 20 -110 19 0 20 7
20 108 0 71 -4 112 -12 120 -18 18 -332 17 -347 -2z"/>
<path d="M3058 599 c-15 -8 -18 -25 -18 -104 0 -51 3 -100 6 -109 5 -13 24
-16 100 -16 56 0 94 4 94 10 0 6 -27 10 -60 10 l-60 0 0 45 0 45 40 0 c22 0
40 5 40 10 0 6 -27 10 -60 10 l-60 0 0 45 0 45 80 0 c47 0 80 4 80 10 0 13
-160 13 -182 -1z"/>
<path d="M3382 602 c-9 -6 -12 -37 -10 -118 l3 -109 109 -3 c81 -2 112 1 118
10 13 21 10 202 -4 216 -14 14 -195 17 -216 4z m186 -114 l-3 -93 -57 -3 -58
-3 0 45 c0 35 -5 49 -20 58 -14 9 -20 24 -20 50 l0 38 80 0 81 0 -3 -92z"/>
<path d="M3966 594 c-11 -10 -14 -26 -10 -49 4 -28 1 -37 -20 -51 -21 -13 -26
-24 -26 -58 0 -49 13 -66 52 -66 27 0 28 1 28 55 l0 55 85 0 85 0 0 -55 c0
-48 2 -55 20 -55 18 0 20 7 20 55 0 44 -4 56 -20 65 -15 8 -20 21 -20 53 0 24
-5 48 -12 55 -19 19 -163 16 -182 -4z"/>
</g>
</svg>
